<svg width="146" height="32" viewBox="0 0 146 32" fill="none" xmlns="http://www.w3.org/2000/svg">
    <path
        d="M40.7288 9.40052V13.0057H36.5476V24.3332H32.4091V13.0057H28.228V9.40052H40.7288ZM44.6359 8.56855C45.9585 8.56855 46.8758 9.33652 46.8758 10.4245C46.8758 11.5978 45.9585 12.3231 44.6359 12.3231C43.3773 12.3231 42.4387 11.5978 42.4387 10.4245C42.4387 9.33652 43.3773 8.56855 44.6359 8.56855ZM46.5558 13.1337V24.3332H42.716V13.1337H46.5558ZM59.3288 17.4855V24.3332H55.4676V17.9761C55.4676 16.5255 54.977 16.1416 54.1877 16.1416C53.377 16.1416 52.8864 16.5255 52.8864 17.9335V24.3332H49.0466V13.1337H52.8864V13.8803C53.5904 13.347 54.3797 12.899 55.7023 12.899C58.1555 12.899 59.3288 14.5416 59.3288 17.4855ZM68.2107 13.1337H72.2425L66.8241 28.2797H63.1549L64.5629 24.8025L60.2964 13.1337H64.3709L65.4375 17.1228C65.6935 18.0615 66.1628 20.0454 66.2908 21.112C66.4401 20.0454 66.9094 18.0615 67.1654 17.0802L68.2107 13.1337ZM87.5362 9.40052C91.0347 9.40052 93.3599 10.7445 93.3599 14.3496C93.3599 18.1468 90.8427 19.4907 87.2589 19.4907H85.1896V24.3332H81.1152V9.40052H87.5362ZM87.3655 16.1202C88.7095 16.1202 89.2428 15.5442 89.2428 14.4136C89.2428 13.4323 88.7521 12.771 87.4295 12.771H85.1896V16.1202H87.3655ZM98.8125 21.8586C99.4525 21.8586 100.092 21.6026 100.455 21.304V19.7681C100.028 19.5761 99.5378 19.4481 98.8125 19.4481C98.0232 19.4481 97.6179 19.8747 97.6179 20.6427C97.6179 21.3467 97.9806 21.8586 98.8125 21.8586ZM104.082 17.0588V24.3332H100.455V23.5866C99.7298 24.1412 98.7485 24.5678 97.7246 24.5678C95.5487 24.5678 94.0981 23.2239 94.0981 20.7067C94.0981 18.2961 95.762 17.0588 98.1299 17.0588C99.1539 17.0588 99.8365 17.2508 100.455 17.5282V16.9735C100.455 15.9922 99.9218 15.6509 98.8765 15.6509C97.7246 15.6509 96.85 15.8642 95.762 16.4615L94.7594 13.923C96.1247 13.2617 97.6393 12.899 99.5805 12.899C102.716 12.899 104.082 14.4563 104.082 17.0588ZM112.606 12.899C113.417 12.899 113.972 13.091 114.42 13.3683L113.524 17.3575C113.033 16.8242 112.478 16.4189 111.732 16.4189C110.793 16.4189 110.217 16.8669 110.217 18.2321V24.3332H106.377V13.1337H110.217V13.9443C110.879 13.3043 111.625 12.899 112.606 12.899ZM122.169 12.899C122.979 12.899 123.534 13.091 123.982 13.3683L123.086 17.3575C122.595 16.8242 122.041 16.4189 121.294 16.4189C120.355 16.4189 119.779 16.8669 119.779 18.2321V24.3332H115.939V13.1337H119.779V13.9443C120.441 13.3043 121.187 12.899 122.169 12.899ZM130.053 12.899C133.146 12.899 135.386 14.8189 135.386 18.7228C135.386 22.5839 133.146 24.5678 130.053 24.5678C126.96 24.5678 124.741 22.5839 124.741 18.7228C124.741 14.8189 126.96 12.899 130.053 12.899ZM130.053 21.4533C131.055 21.4533 131.567 20.5787 131.567 18.7228C131.567 16.8242 131.055 16.0136 130.053 16.0136C129.05 16.0136 128.538 16.8242 128.538 18.7228C128.538 20.5787 129.05 21.4533 130.053 21.4533ZM143.054 21.304C143.566 21.304 143.993 21.112 144.59 20.7067L144.099 23.9705C143.353 24.3332 142.414 24.5678 141.326 24.5678C139.299 24.5678 138.361 23.5439 138.361 21.0053V16.1416H136.654V13.1337H138.361V10.2965L142.094 8.78188V13.1337H144.526V16.1416H142.094V20.1947C142.094 21.048 142.414 21.304 143.054 21.304Z"
        fill="#472E75" />
    <path
        d="M3.03711 29.3555C3.03711 29.4599 2.99564 29.56 2.92181 29.6339L0.672334 31.8841C0.424261 32.1322 0 31.9565 0 31.6057V3.29523C0 3.19294 0.0397995 3.09466 0.110976 3.0212L2.36045 0.699394C2.60668 0.445245 3.03711 0.619558 3.03711 0.973424V29.3555ZM6.99121 0.00249224C6.99121 0.00328855 6.99184 0.00394972 6.99263 0.00400501C12.5577 0.391328 16.6659 4.37157 16.666 9.50195C16.666 13.9975 12.4064 18.3361 8.58934 19.4173C8.55694 19.4265 8.53543 19.3861 8.56004 19.3631C8.56659 19.357 8.57031 19.3484 8.57031 19.3395V17.7512C8.57031 17.628 8.62922 17.511 8.72724 17.4364C12.311 14.7099 14.1319 13.0639 12.1689 9.14257C12.0964 8.99776 12.1145 8.82069 12.2202 8.69802L13.1314 7.64083C13.3016 7.44333 13.2045 7.13575 12.9517 7.07185C12.644 6.99406 12.5935 6.5809 12.8983 6.49222C13.0658 6.44346 13.2454 6.41072 13.4636 6.39002C13.5428 6.38251 13.6344 6.41631 13.6936 6.46944C13.9394 6.69004 14.2652 6.59177 14.1712 6.27516C14.027 5.78927 13.7735 5.26691 13.3486 4.85059C12.2758 3.79944 11.1337 3.14886 10.1162 3.37891C9.28426 3.56709 7.74472 3.7483 7.08203 6.14062C6.59765 7.88937 6.67179 12.2448 6.79146 14.722C6.80574 15.0176 7.1277 15.1842 7.36977 15.0141C7.95182 14.6051 8.66493 14.0167 8.90137 13.5176C9.30191 12.6718 9.55611 11.4663 9.56348 10.3623C9.56757 9.74633 9.50889 9.37704 9.45215 9.18359C11.2124 13.3466 10.2222 14.9249 7.13042 17.0562C7.023 17.1302 6.95703 17.2529 6.95703 17.3834V20.8505C6.95703 20.8594 6.96765 20.864 6.97412 20.8579C6.98059 20.8518 6.99121 20.8564 6.99121 20.8653V25.4222C6.99121 25.5259 6.95036 25.6253 6.87752 25.699L4.15929 28.4498C3.91189 28.7002 3.48535 28.525 3.48535 28.173V0.394795C3.48535 0.177295 3.66167 0.000976562 3.87917 0.000976562H6.9897C6.99053 0.000976562 6.99121 0.00165515 6.99121 0.00249224Z"
        fill="#472E75" />
</svg>