<svg width="115" height="24" viewBox="0 0 115 24" fill="none" xmlns="http://www.w3.org/2000/svg">
<path d="M2.71875 22.2954C2.71875 22.4491 2.65861 22.5967 2.55118 22.7067L1.46287 23.8208C1.09408 24.1983 0.453125 23.9372 0.453125 23.4095V2.62797C0.453125 2.47744 0.510792 2.33263 0.614271 2.22331L1.70258 1.07355C2.06848 0.686991 2.71875 0.945944 2.71875 1.47821V22.2954ZM5.66895 0.00101125C5.66895 0.0015419 5.66936 0.00198274 5.66989 0.00202044C9.82238 0.297772 12.8867 3.33709 12.8867 7.25391C12.8864 10.6868 9.70734 13.9969 6.85892 14.8206C6.8354 14.8274 6.81962 14.7982 6.83738 14.7814C6.84207 14.7769 6.84473 14.7708 6.84473 14.7643V13.6905C6.84473 13.5087 6.92923 13.3369 7.07253 13.225C9.62297 11.2337 10.9245 9.98039 9.61173 7.14846C9.51181 6.93293 9.53813 6.67656 9.69113 6.49482L10.252 5.82867C10.3787 5.67818 10.3048 5.44701 10.1143 5.39788C9.88199 5.33796 9.84266 5.02548 10.0724 4.95625C10.1978 4.91844 10.3322 4.89301 10.4956 4.87703C10.5554 4.87117 10.6241 4.89673 10.6683 4.93739C10.85 5.10414 11.0949 5.03193 11.0265 4.795C10.9191 4.42256 10.7297 4.02149 10.4111 3.70215C9.61061 2.89967 8.75826 2.40349 7.99902 2.5791C7.3782 2.72276 6.22979 2.86123 5.73535 4.6875C5.40339 5.91408 5.42267 8.8196 5.49717 10.7504C5.51433 11.1952 5.99975 11.4428 6.34285 11.1591C6.66389 10.8936 6.96771 10.5894 7.09277 10.3193C7.39166 9.67364 7.58045 8.75301 7.58594 7.91016C7.58899 7.43982 7.54625 7.15742 7.50391 7.00977C8.79389 10.1311 8.10392 11.3497 5.89354 12.9336C5.73684 13.0459 5.6416 13.2263 5.6416 13.4191V15.9162C5.6416 15.9233 5.65023 15.9269 5.65527 15.9219C5.66032 15.9168 5.66895 15.9204 5.66895 15.9275V19.2933C5.66895 19.446 5.60968 19.5926 5.50365 19.7024L4.06475 21.1917C3.69695 21.5724 3.05273 21.3121 3.05273 20.7827V0.588657C3.05273 0.263551 3.31629 0 3.64139 0H5.66793C5.66849 0 5.66895 0.00045275 5.66895 0.00101125Z" fill="url(#paint0_linear_224_11093)"/>
<path d="M21.5973 8.62286V6.8543H29.9299V8.62286H26.8238V17H24.7035V8.62286H21.5973ZM33.4472 6.8543V17H31.3021V6.8543H33.4472ZM43.6982 6.8543V17H41.8454L37.4314 10.6143H37.3571V17H35.212V6.8543H37.0945L41.4738 13.235H41.563V6.8543H43.6982ZM44.876 6.8543H47.2786L49.5921 11.2237H49.6912L52.0047 6.8543H54.4074L50.7068 13.4133V17H48.5766V13.4133L44.876 6.8543ZM58.8077 17V6.8543H62.8105C63.58 6.8543 64.2356 7.00126 64.7773 7.2952C65.3189 7.58583 65.7317 7.9904 66.0157 8.50892C66.3031 9.02413 66.4467 9.6186 66.4467 10.2923C66.4467 10.9661 66.3014 11.5606 66.0108 12.0758C65.7202 12.591 65.2991 12.9922 64.7475 13.2796C64.1993 13.5669 63.5355 13.7106 62.756 13.7106H60.2048V11.9915H62.4093C62.8221 11.9915 63.1623 11.9205 63.4298 11.7785C63.7006 11.6332 63.9021 11.4334 64.0342 11.1791C64.1696 10.9215 64.2373 10.6259 64.2373 10.2923C64.2373 9.95547 64.1696 9.66154 64.0342 9.41054C63.9021 9.15623 63.7006 8.95973 63.4298 8.82102C63.159 8.679 62.8155 8.608 62.3994 8.608H60.9528V17H58.8077ZM68.4172 17H66.1185L69.621 6.8543H72.3853L75.8828 17H73.5842L71.0428 9.17275H70.9635L68.4172 17ZM68.2735 13.0121H73.7031V14.6865H68.2735V13.0121ZM77.1039 17V6.8543H81.1067C81.873 6.8543 82.5269 6.99136 83.0685 7.26547C83.6134 7.53629 84.0279 7.92105 84.3119 8.41975C84.5993 8.91514 84.7429 9.49806 84.7429 10.1685C84.7429 10.8422 84.5976 11.4218 84.307 11.9073C84.0164 12.3895 83.5953 12.7594 83.0437 13.017C82.4955 13.2746 81.8317 13.4034 81.0522 13.4034H78.3722V11.6795H80.7055C81.115 11.6795 81.4552 11.6233 81.726 11.511C81.9968 11.3987 82.1983 11.2303 82.3304 11.0057C82.4658 10.7811 82.5335 10.5021 82.5335 10.1685C82.5335 9.83162 82.4658 9.5476 82.3304 9.31641C82.1983 9.08523 81.9951 8.91019 81.721 8.79129C81.4502 8.6691 81.1084 8.608 80.6956 8.608H79.249V17H77.1039ZM82.583 12.3829L85.1046 17H82.7366L80.2695 12.3829H82.583ZM86.2589 17V6.8543H90.2617C91.0279 6.8543 91.6818 6.99136 92.2234 7.26547C92.7684 7.53629 93.1828 7.92105 93.4669 8.41975C93.7542 8.91514 93.8979 9.49806 93.8979 10.1685C93.8979 10.8422 93.7525 11.4218 93.4619 11.9073C93.1713 12.3895 92.7502 12.7594 92.1987 13.017C91.6504 13.2746 90.9866 13.4034 90.2072 13.4034H87.5271V11.6795H89.8604C90.2699 11.6795 90.6101 11.6233 90.8809 11.511C91.1517 11.3987 91.3532 11.2303 91.4853 11.0057C91.6207 10.7811 91.6884 10.5021 91.6884 10.1685C91.6884 9.83162 91.6207 9.5476 91.4853 9.31641C91.3532 9.08523 91.1501 8.91019 90.8759 8.79129C90.6051 8.6691 90.2633 8.608 89.8505 8.608H88.4039V17H86.2589ZM91.7379 12.3829L94.2595 17H91.8915L89.4244 12.3829H91.7379ZM104.737 11.9271C104.737 13.0335 104.527 13.9748 104.108 14.7509C103.692 15.527 103.124 16.1198 102.404 16.5294C101.687 16.9356 100.881 17.1387 99.9863 17.1387C99.0846 17.1387 98.2755 16.9339 97.5588 16.5244C96.8422 16.1149 96.2758 15.5221 95.8596 14.7459C95.4435 13.9698 95.2354 13.0302 95.2354 11.9271C95.2354 10.8208 95.4435 9.87951 95.8596 9.10339C96.2758 8.32727 96.8422 7.7361 97.5588 7.32988C98.2755 6.92035 99.0846 6.71559 99.9863 6.71559C100.881 6.71559 101.687 6.92035 102.404 7.32988C103.124 7.7361 103.692 8.32727 104.108 9.10339C104.527 9.87951 104.737 10.8208 104.737 11.9271ZM102.562 11.9271C102.562 11.2105 102.455 10.6061 102.24 10.114C102.029 9.62191 101.73 9.24871 101.344 8.99441C100.957 8.7401 100.505 8.61295 99.9863 8.61295C99.4678 8.61295 99.0153 8.7401 98.6289 8.99441C98.2425 9.24871 97.9419 9.62191 97.7273 10.114C97.5159 10.6061 97.4102 11.2105 97.4102 11.9271C97.4102 12.6438 97.5159 13.2482 97.7273 13.7403C97.9419 14.2324 98.2425 14.6056 98.6289 14.8599C99.0153 15.1142 99.4678 15.2413 99.9863 15.2413C100.505 15.2413 100.957 15.1142 101.344 14.8599C101.73 14.6056 102.029 14.2324 102.24 13.7403C102.455 13.2482 102.562 12.6438 102.562 11.9271ZM105.476 8.62286V6.8543H113.809V8.62286H110.703V17H108.583V8.62286H105.476Z" fill="url(#paint1_linear_224_11093)"/>
<defs>
<linearGradient id="paint0_linear_224_11093" x1="0.453125" y1="11.9997" x2="12.8867" y2="11.9997" gradientUnits="userSpaceOnUse">
<stop stop-color="#6441A5"/>
<stop offset="1" stop-color="#2A0845"/>
</linearGradient>
<linearGradient id="paint1_linear_224_11093" x1="20.8574" y1="11.9997" x2="114.544" y2="11.9997" gradientUnits="userSpaceOnUse">
<stop stop-color="#6441A5"/>
<stop offset="1" stop-color="#2A0845"/>
</linearGradient>
</defs>
</svg>
