<svg width="166" height="74" viewBox="0 0 166 74" fill="none" xmlns="http://www.w3.org/2000/svg">
    <rect width="165.994" height="72.03" transform="translate(0 0.984863)" fill="#F0ECF6"
        fill-opacity="0.1" />
    <path
        d="M50.7288 30.4003V34.0055H46.5476V45.333H42.4091V34.0055H38.228V30.4003H50.7288ZM54.6359 29.5684C55.9585 29.5684 56.8758 30.3363 56.8758 31.4243C56.8758 32.5976 55.9585 33.3229 54.6359 33.3229C53.3773 33.3229 52.4387 32.5976 52.4387 31.4243C52.4387 30.3363 53.3773 29.5684 54.6359 29.5684ZM56.5558 34.1335V45.333H52.716V34.1335H56.5558ZM69.3288 38.4853V45.333H65.4676V38.976C65.4676 37.5254 64.977 37.1414 64.1877 37.1414C63.377 37.1414 62.8864 37.5254 62.8864 38.9333V45.333H59.0466V34.1335H62.8864V34.8801C63.5904 34.3468 64.3797 33.8988 65.7023 33.8988C68.1555 33.8988 69.3288 35.5414 69.3288 38.4853ZM78.2107 34.1335H82.2425L76.8241 49.2795H73.1549L74.5629 45.8023L70.2964 34.1335H74.3709L75.4375 38.1227C75.6935 39.0613 76.1628 41.0452 76.2908 42.1118C76.4401 41.0452 76.9094 39.0613 77.1654 38.08L78.2107 34.1335ZM97.5362 30.4003C101.035 30.4003 103.36 31.7443 103.36 35.3494C103.36 39.1466 100.843 40.4906 97.2589 40.4906H95.1896V45.333H91.1152V30.4003H97.5362ZM97.3655 37.12C98.7095 37.12 99.2428 36.5441 99.2428 35.4134C99.2428 34.4322 98.7521 33.7709 97.4295 33.7709H95.1896V37.12H97.3655ZM108.813 42.8585C109.453 42.8585 110.092 42.6025 110.455 42.3038V40.7679C110.028 40.5759 109.538 40.4479 108.813 40.4479C108.023 40.4479 107.618 40.8745 107.618 41.6425C107.618 42.3465 107.981 42.8585 108.813 42.8585ZM114.082 38.0587V45.333H110.455V44.5864C109.73 45.141 108.749 45.5677 107.725 45.5677C105.549 45.5677 104.098 44.2237 104.098 41.7065C104.098 39.2959 105.762 38.0587 108.13 38.0587C109.154 38.0587 109.836 38.2507 110.455 38.528V37.9733C110.455 36.992 109.922 36.6507 108.877 36.6507C107.725 36.6507 106.85 36.864 105.762 37.4614L104.759 34.9228C106.125 34.2615 107.639 33.8988 109.581 33.8988C112.716 33.8988 114.082 35.4561 114.082 38.0587ZM122.606 33.8988C123.417 33.8988 123.972 34.0908 124.42 34.3682L123.524 38.3573C123.033 37.824 122.478 37.4187 121.732 37.4187C120.793 37.4187 120.217 37.8667 120.217 39.2319V45.333H116.377V34.1335H120.217V34.9441C120.879 34.3042 121.625 33.8988 122.606 33.8988ZM132.169 33.8988C132.979 33.8988 133.534 34.0908 133.982 34.3682L133.086 38.3573C132.595 37.824 132.041 37.4187 131.294 37.4187C130.355 37.4187 129.779 37.8667 129.779 39.2319V45.333H125.939V34.1335H129.779V34.9441C130.441 34.3042 131.187 33.8988 132.169 33.8988ZM140.053 33.8988C143.146 33.8988 145.386 35.8188 145.386 39.7226C145.386 43.5838 143.146 45.5677 140.053 45.5677C136.96 45.5677 134.741 43.5838 134.741 39.7226C134.741 35.8188 136.96 33.8988 140.053 33.8988ZM140.053 42.4531C141.055 42.4531 141.567 41.5785 141.567 39.7226C141.567 37.824 141.055 37.0134 140.053 37.0134C139.05 37.0134 138.538 37.824 138.538 39.7226C138.538 41.5785 139.05 42.4531 140.053 42.4531ZM153.054 42.3038C153.566 42.3038 153.993 42.1118 154.59 41.7065L154.099 44.9704C153.353 45.333 152.414 45.5677 151.326 45.5677C149.299 45.5677 148.361 44.5437 148.361 42.0052V37.1414H146.654V34.1335H148.361V31.2963L152.094 29.7817V34.1335H154.526V37.1414H152.094V41.1945C152.094 42.0478 152.414 42.3038 153.054 42.3038Z"
        fill="#472E75" />
    <path
        d="M13.0371 50.3555C13.0371 50.4599 12.9956 50.56 12.9218 50.6339L10.6723 52.8841C10.4243 53.1322 10 52.9565 10 52.6057V24.2952C10 24.1929 10.0398 24.0947 10.111 24.0212L12.3604 21.6994C12.6067 21.4452 13.0371 21.6196 13.0371 21.9734V50.3555ZM16.9912 21.0025C16.9912 21.0033 16.9918 21.0039 16.9926 21.004C22.5577 21.3913 26.6659 25.3716 26.666 30.502C26.666 34.9975 22.4064 39.3361 18.5893 40.4173C18.5569 40.4265 18.5354 40.3861 18.56 40.3631C18.5666 40.357 18.5703 40.3484 18.5703 40.3395V38.7512C18.5703 38.628 18.6292 38.511 18.7272 38.4364C22.311 35.7099 24.1319 34.0639 22.1689 30.1426C22.0964 29.9978 22.1145 29.8207 22.2202 29.698L23.1314 28.6408C23.3016 28.4433 23.2045 28.1357 22.9517 28.0719C22.644 27.9941 22.5935 27.5809 22.8983 27.4922C23.0658 27.4435 23.2454 27.4107 23.4636 27.39C23.5428 27.3825 23.6344 27.4163 23.6936 27.4694C23.9394 27.69 24.2652 27.5918 24.1712 27.2752C24.027 26.7893 23.7735 26.2669 23.3486 25.8506C22.2758 24.7994 21.1337 24.1489 20.1162 24.3789C19.2843 24.5671 17.7447 24.7483 17.082 27.1406C16.5977 28.8894 16.6718 33.2448 16.7915 35.722C16.8057 36.0176 17.1277 36.1842 17.3698 36.0141C17.9518 35.6051 18.6649 35.0167 18.9014 34.5176C19.3019 33.6718 19.5561 32.4663 19.5635 31.3623C19.5676 30.7463 19.5089 30.377 19.4521 30.1836C21.2124 34.3466 20.2222 35.9249 17.1304 38.0562C17.023 38.1302 16.957 38.2529 16.957 38.3834V41.8505C16.957 41.8594 16.9677 41.864 16.9741 41.8579C16.9806 41.8518 16.9912 41.8564 16.9912 41.8653V46.4222C16.9912 46.5259 16.9504 46.6253 16.8775 46.699L14.1593 49.4498C13.9119 49.7002 13.4854 49.525 13.4854 49.173V21.3948C13.4854 21.1773 13.6617 21.001 13.8792 21.001H16.9897C16.9905 21.001 16.9912 21.0017 16.9912 21.0025Z"
        fill="#472E75" />
</svg>